<svg width="30" height="30" viewBox="0 0 30 30" fill="none" xmlns="http://www.w3.org/2000/svg">
<path d="M17 2C17 0.89543 16.1046 -4.27112e-08 15 0C13.8954 4.27112e-08 13 0.895431 13 2L17 2ZM13.5858 29.4142C14.3668 30.1953 15.6332 30.1953 16.4142 29.4142L29.1421 16.6863C29.9232 15.9052 29.9232 14.6389 29.1421 13.8579C28.3611 13.0768 27.0948 13.0768 26.3137 13.8579L15 25.1716L3.68629 13.8579C2.90524 13.0768 1.63891 13.0768 0.857865 13.8579C0.0768161 14.6389 0.0768161 15.9052 0.857865 16.6863L13.5858 29.4142ZM15 2L13 2L13 28L15 28L17 28L17 2L15 2Z" fill="#231F20"/>
</svg>
