<svg width="126" height="46" viewBox="0 0 126 46" fill="none" xmlns="http://www.w3.org/2000/svg">
<path d="M3 20C1.34315 20 1.44847e-07 21.3431 0 23C-1.44847e-07 24.6569 1.34315 26 3 26L3 20ZM125.121 25.1213C126.293 23.9498 126.293 22.0503 125.121 20.8787L106.029 1.78681C104.858 0.615232 102.958 0.615232 101.787 1.78681C100.615 2.95838 100.615 4.85787 101.787 6.02945L118.757 23L101.787 39.9706C100.615 41.1421 100.615 43.0416 101.787 44.2132C102.958 45.3848 104.858 45.3848 106.029 44.2132L125.121 25.1213ZM3 23L3 26L123 26L123 23L123 20L3 20L3 23Z" fill="white"/>
</svg>
