<svg width="150" height="34" viewBox="0 0 150 34" fill="none" xmlns="http://www.w3.org/2000/svg">
<path d="M22.3792 12.6086C23.6645 12.6087 24.7043 13.6117 24.7043 14.8518V31.3166C24.7043 32.5567 23.6645 33.5607 22.3792 33.5608H20.8254C19.5402 33.5606 18.5002 32.5566 18.5002 31.3166V14.8518C18.5002 13.6118 19.5402 12.6088 20.8254 12.6086H22.3792Z" fill="#F1FF7C"/>
<path d="M45.4319 6.61838C46.7171 6.61861 47.7571 7.62258 47.7571 8.86252V25.3274C47.7571 26.5674 48.7969 27.5705 50.0823 27.5705L50.0862 27.5754H57.844C59.1292 27.5756 60.1691 28.5787 60.1692 29.8186V31.3166C60.1692 32.5566 59.1292 33.5606 57.844 33.5608H43.8782C42.5928 33.5607 41.553 32.5567 41.553 31.3166V8.86252C41.553 7.62246 42.5928 6.61842 43.8782 6.61838H45.4319Z" fill="#F1FF7C"/>
<path d="M87.095 27.5539C88.3804 27.5539 89.4211 28.557 89.4211 29.7971V31.2951C89.4211 32.5352 88.3804 33.5393 87.095 33.5393H79.3381C78.0528 33.5392 77.0129 32.5351 77.0129 31.2951V29.7971C77.013 28.5571 78.0528 27.554 79.3381 27.5539H87.095Z" fill="#F1FF7C"/>
<path d="M117.597 11.0881C118.882 11.0881 119.922 12.0914 119.922 13.3313V31.2951C119.922 32.5352 118.882 33.5392 117.597 33.5393H116.043C114.758 33.539 113.718 32.5351 113.718 31.2951V13.3313C113.718 12.0915 114.758 11.0884 116.043 11.0881H117.597Z" fill="#F1FF7C"/>
<path d="M146.853 0.612518C148.138 0.612518 149.178 1.6156 149.178 2.85568V25.3108C149.178 26.5507 148.138 27.5539 146.853 27.5539H145.3C144.015 27.5539 142.975 26.5507 142.975 25.3108V14.8342C142.975 13.5943 141.935 12.5912 140.65 12.591H132.892C131.607 12.5912 130.567 13.5943 130.567 14.8342V25.3108C130.567 26.5506 131.607 27.5537 132.892 27.5539H140.65C141.935 27.5541 142.975 28.5571 142.975 29.7971V31.2951C142.975 32.5351 141.935 33.5391 140.65 33.5393H126.684C125.398 33.5392 124.359 32.5352 124.359 31.2951V8.84103C124.359 7.60098 125.398 6.59694 126.684 6.59689H140.65C141.935 6.5967 142.975 5.59369 142.975 4.35373V2.85568C142.975 1.6156 144.015 0.612518 145.3 0.612518H146.853Z" fill="#F1FF7C"/>
<path d="M11.7385 27.4504C13.0239 27.4504 14.0636 28.4536 14.0637 29.6936V31.1926C14.0635 32.4325 13.0238 33.4358 11.7385 33.4358H8.63696C7.3517 33.4358 6.31198 32.4325 6.31177 31.1926V29.6936C6.31188 28.4536 7.35163 27.4504 8.63696 27.4504H11.7385Z" fill="#F1FF7C"/>
<path d="M64.052 6.62326C65.3373 6.62332 66.3772 7.62639 66.3772 8.86642V25.3322C66.377 26.5722 65.3372 27.5753 64.052 27.5754H62.4983C61.2132 27.5752 60.1733 26.5721 60.1731 25.3322V8.86642C60.1731 7.62649 61.2131 6.62348 62.4983 6.62326H64.052Z" fill="#F1FF7C"/>
<path fill-rule="evenodd" clip-rule="evenodd" d="M93.3079 6.59689C94.5933 6.59689 95.6331 7.60095 95.6331 8.84103V20.8195C95.633 22.0596 94.5932 23.0627 93.3079 23.0627H79.343C78.0577 23.0627 77.018 24.0659 77.0178 25.3059C77.0178 26.5458 75.9778 27.5488 74.6926 27.549H73.1389C71.8535 27.549 70.8137 26.5459 70.8137 25.3059V8.84103C70.8137 7.60097 71.8535 6.59692 73.1389 6.59689H93.3079ZM79.343 12.5871C78.0576 12.5871 77.0178 13.5902 77.0178 14.8303C77.018 16.0703 78.0577 17.0735 79.343 17.0735H87.0999C88.3852 17.0735 89.4249 16.0703 89.425 14.8303C89.425 13.5902 88.3853 12.5871 87.0999 12.5871H79.343Z" fill="#F1FF7C"/>
<path d="M3.98657 0.500214C5.27174 0.500415 6.31167 1.5035 6.31177 2.74338V4.2424C6.312 5.48229 7.35171 6.48557 8.63696 6.48557H11.5696C12.8548 6.48578 13.8948 7.48878 13.8948 8.72873V10.2268C13.8948 11.4667 12.8548 12.4707 11.5696 12.4709H8.63696C7.35156 12.4709 6.31177 13.474 6.31177 14.7141V25.1985C6.31177 26.4384 5.27179 27.4414 3.98657 27.4416H2.43286C1.14752 27.4416 0.107666 26.4385 0.107666 25.1985V2.74338C0.107763 1.50342 1.14758 0.500283 2.43286 0.500214H3.98657Z" fill="#F1FF7C"/>
<path d="M34.7913 6.61838C36.0766 6.61842 37.1165 7.62247 37.1165 8.86252V10.3606C37.1165 11.6006 36.0766 12.6037 34.7913 12.6037H27.0344C25.749 12.6037 24.7092 11.6006 24.7092 10.3606V8.86252C24.7092 7.62244 25.749 6.61838 27.0344 6.61838H34.7913Z" fill="#F1FF7C"/>
<path d="M117.597 0.612518C118.882 0.612545 119.922 1.61562 119.922 2.85568V4.35373C119.922 5.59379 118.882 6.59687 117.597 6.59689H116.043C114.758 6.59665 113.718 5.59366 113.718 4.35373V2.85568C113.718 1.61575 114.758 0.612766 116.043 0.612518H117.597Z" fill="#F1FF7C"/>
</svg>
