<svg width="144" height="30" viewBox="0 0 144 30" fill="none" xmlns="http://www.w3.org/2000/svg">
<path d="M5.98076 21.8626C5.98076 22.9603 4.97823 23.8484 3.73905 23.8484H2.24171C1.00253 23.8484 0 22.9603 0 21.8626V1.98577C0 0.888069 1.00253 0 2.24171 0H3.73905C4.97823 0 5.98076 0.888069 5.98076 1.98577V3.31217C5.98076 4.40987 6.9833 5.29794 8.22248 5.29794H11.0494C12.2885 5.29794 13.2911 6.18601 13.2911 7.28371V8.6101C13.2911 9.70781 12.2885 10.5959 11.0494 10.5959H8.22248C6.9833 10.5959 5.98076 11.4839 5.98076 12.5816V21.8626ZM5.98076 27.1681V25.8417C5.98076 24.744 6.9833 23.856 8.22248 23.856H11.2129C12.452 23.856 13.4546 24.744 13.4546 25.8417V27.1681C13.4546 28.2658 12.452 29.1539 11.2129 29.1539H8.22248C6.9833 29.1539 5.98076 28.2658 5.98076 27.1681Z" fill="white"/>
<path d="M17.7313 27.2787V12.7036C17.7313 11.6059 18.7339 10.7179 19.9731 10.7179H21.4704C22.7096 10.7179 23.7121 11.6059 23.7121 12.7036V27.2787C23.7121 28.3764 22.7096 29.2645 21.4704 29.2645H19.9731C18.7339 29.2645 17.7313 28.3764 17.7313 27.2787ZM23.7164 8.72829V7.40189C23.7164 6.30419 24.7189 5.41612 25.9581 5.41612H33.4362C34.6754 5.41612 35.6779 6.30419 35.6779 7.40189V8.72829C35.6779 9.82599 34.6754 10.7141 33.4362 10.7141H25.9581C24.7189 10.7141 23.7164 9.82599 23.7164 8.72829Z" fill="white"/>
<path d="M48.1817 23.9665H55.6599C56.899 23.9665 57.9016 24.8546 57.9016 25.9523V27.2787C57.9016 28.3764 56.899 29.2645 55.6599 29.2645H42.1967C40.9575 29.2645 39.955 28.3764 39.955 27.2787V7.40189C39.955 6.30419 40.9575 5.41612 42.1967 5.41612H43.694C44.9332 5.41612 45.9357 6.30419 45.9357 7.40189V21.977C45.9357 23.0747 46.9383 23.9627 48.1774 23.9627L48.1817 23.9665ZM57.9059 21.9808V7.40571C57.9059 6.30801 58.9084 5.41994 60.1476 5.41994H61.6449C62.8841 5.41994 63.8866 6.30801 63.8866 7.40571V21.9808C63.8866 23.0785 62.8841 23.9665 61.6449 23.9665H60.1476C58.9084 23.9665 57.9059 23.0785 57.9059 21.9808Z" fill="white"/>
<path d="M92.0907 17.9863C92.0907 19.084 91.0882 19.9721 89.849 19.9721H76.3859C75.1467 19.9721 74.1441 20.8602 74.1441 21.9579C74.1441 23.0556 73.1416 23.9437 71.9024 23.9437H70.4051C69.1659 23.9437 68.1634 23.0556 68.1634 21.9579V7.38283C68.1634 6.28513 69.1659 5.39706 70.4051 5.39706H89.849C91.0882 5.39706 92.0907 6.28513 92.0907 7.38283V17.9863ZM83.864 10.6988H76.3859C75.1467 10.6988 74.1441 11.5869 74.1441 12.6846C74.1441 13.7823 75.1467 14.6704 76.3859 14.6704H83.864C85.1031 14.6704 86.1057 13.7823 86.1057 12.6846C86.1057 11.5869 85.1031 10.6988 83.864 10.6988ZM74.1398 27.2596V25.9332C74.1398 24.8355 75.1424 23.9475 76.3815 23.9475H83.8597C85.0988 23.9475 86.1014 24.8355 86.1014 25.9332V27.2596C86.1014 28.3573 85.0988 29.2454 83.8597 29.2454H76.3815C75.1424 29.2454 74.1398 28.3573 74.1398 27.2596Z" fill="white"/>
<path d="M109.525 3.41124V2.08485C109.525 0.987149 110.528 0.0990692 111.767 0.0990692H113.264C114.504 0.0990692 115.506 0.987149 115.506 2.08485V3.41124C115.506 4.50894 114.504 5.39702 113.264 5.39702H111.767C110.528 5.39702 109.525 4.50894 109.525 3.41124ZM109.525 27.2596V11.3581C109.525 10.2604 110.528 9.37238 111.767 9.37238H113.264C114.504 9.37238 115.506 10.2604 115.506 11.3581V27.2596C115.506 28.3573 114.504 29.2454 113.264 29.2454H111.767C110.528 29.2454 109.525 28.3573 109.525 27.2596Z" fill="white"/>
<path d="M143.71 2.08485V21.9617C143.71 23.0594 142.708 23.9474 141.469 23.9474H139.971C138.732 23.9474 137.73 23.0594 137.73 21.9617V12.6884C137.73 11.5907 136.727 10.7026 135.488 10.7026H128.01C126.771 10.7026 125.768 11.5907 125.768 12.6884V21.9617C125.768 23.0594 126.771 23.9474 128.01 23.9474H135.488C136.727 23.9474 137.73 24.8355 137.73 25.9332V27.2596C137.73 28.3573 136.727 29.2454 135.488 29.2454H122.025C120.786 29.2454 119.783 28.3573 119.783 27.2596V7.38279C119.783 6.28509 120.786 5.39702 122.025 5.39702H135.488C136.727 5.39702 137.73 4.50894 137.73 3.41124V2.08485C137.73 0.987149 138.732 0.0990692 139.971 0.0990692H141.469C142.708 0.0990692 143.71 0.987149 143.71 2.08485Z" fill="white"/>
</svg>
